<?xml version="1.0" encoding="UTF-8" standalone="no"?>
<!-- Generator: Adobe Illustrator 13.0.0, SVG Export Plug-In . SVG Version: 6.00 Build 14948)  -->

<svg
   xmlns:dc="http://purl.org/dc/elements/1.1/"
   xmlns:cc="http://creativecommons.org/ns#"
   xmlns:rdf="http://www.w3.org/1999/02/22-rdf-syntax-ns#"
   xmlns:svg="http://www.w3.org/2000/svg"
   xmlns="http://www.w3.org/2000/svg"
   xmlns:sodipodi="http://sodipodi.sourceforge.net/DTD/sodipodi-0.dtd"
   xmlns:inkscape="http://www.inkscape.org/namespaces/inkscape"
   version="1.0"
   id="Layer_2"
   x="0px"
   y="0px"
   width="1000"
   height="1000"
   viewBox="0 0 999.99992 999.99996"
   enable-background="new 0 0 260.618 260.618"
   xml:space="preserve"
   sodipodi:docname="EA Sports 2000 (Print).svg"
   inkscape:version="0.92.2 (5c3e80d, 2017-08-06)"><metadata
     id="metadata73264"><rdf:RDF><cc:Work
         rdf:about=""><dc:format>image/svg+xml</dc:format><dc:type
           rdf:resource="http://purl.org/dc/dcmitype/StillImage" /><dc:title></dc:title></cc:Work></rdf:RDF></metadata><defs
     id="defs73262" /><sodipodi:namedview
     pagecolor="#ffffff"
     bordercolor="#666666"
     borderopacity="1"
     objecttolerance="10"
     gridtolerance="10"
     guidetolerance="10"
     inkscape:pageopacity="0"
     inkscape:pageshadow="2"
     inkscape:window-width="1360"
     inkscape:window-height="706"
     id="namedview73260"
     showgrid="false"
     inkscape:zoom="0.25"
     inkscape:cx="974.31944"
     inkscape:cy="692.86303"
     inkscape:window-x="-8"
     inkscape:window-y="-8"
     inkscape:window-maximized="1"
     inkscape:current-layer="Layer_2" /><path
     style="fill:#000000;fill-opacity:1;stroke:none;stroke-width:41.57879257;stroke-miterlimit:3.90933347;stroke-dasharray:none;stroke-opacity:1"
     d="M 500 0 A 500 500 0 0 0 0 500 A 500 500 0 0 0 500 1000 A 500 500 0 0 0 1000 500 A 500 500 0 0 0 500 0 z M 500 85 A 415 415 0 0 1 915 500 A 415 415 0 0 1 500 915 A 415 415 0 0 1 85 500 A 415 415 0 0 1 500 85 z "
     id="path73809" /><g
     id="g73239"
     transform="matrix(3.837034,0,0,3.8370303,-1.4627724e-4,8.6705078e-4)"
     style="fill:#000000;fill-opacity:1"><path
       d="m 215.491,144.392 v 0.793 c 0,0 0.881,0 1.02,0 0,0.139 0,3.015 0,3.015 h 0.876 c 0,0 0,-2.875 0,-3.015 0.141,0 1.019,0 1.019,0 v -0.793 h -0.25 z"
       id="path73235"
       inkscape:connector-curvature="0"
       style="fill:#000000;fill-opacity:1" /><path
       d="m 222.011,144.393 h -0.928 c 0,0 -0.415,1.994 -0.533,2.563 -0.158,-0.752 -0.54,-2.563 -0.54,-2.563 h -1.188 v 3.807 h 0.831 c 0,0 0,-1.473 0,-2.313 0.173,0.864 0.463,2.313 0.463,2.313 h 0.837 c 0,0 0.305,-1.481 0.478,-2.324 0,0.837 0,2.324 0,2.324 h 0.831 v -3.807 z"
       id="path73237"
       inkscape:connector-curvature="0"
       style="fill:#000000;fill-opacity:1" /></g><g
     id="g73257"
     transform="matrix(3.837034,0,0,3.8370303,-1.4627724e-4,8.6705078e-4)"
     style="fill:#000000;fill-opacity:1"><g
       id="g73253"
       style="fill:#000000;fill-opacity:1"><path
         d="M 63.364,156.981 H 51.97 v -7.609 h 13.285 v 4.494 h 5.484 v -2.446 c 0,-5.38 -1.998,-7.279 -7.768,-7.279 h -8.953 c -5.898,0 -7.727,1.811 -7.727,7.804 v 2.735 c 0,5.996 1.828,7.808 7.727,7.808 h 11.381 v 8.261 l -13.266,0.033 v -5.045 l -5.842,0.033 v 2.535 c 0,5.9 1.898,7.801 7.803,7.801 h 9.27 c 5.92,0 7.744,-1.834 7.744,-7.836 v -3.473 c 0,-5.916 -1.894,-7.816 -7.744,-7.816 z"
         id="path73241"
         inkscape:connector-curvature="0"
         style="clip-rule:evenodd;fill:#000000;fill-rule:evenodd;fill-opacity:1" /><polygon
         points="171.598,149.372 171.598,176.105 177.764,176.105 177.764,149.372 188.209,149.372 188.209,144.14 161.18,144.14 161.18,149.372 "
         id="polygon73243"
         style="clip-rule:evenodd;fill:#000000;fill-rule:evenodd;fill-opacity:1" /><path
         d="m 207.473,156.981 h -11.416 v -7.609 h 13.324 v 4.494 h 5.445 v -2.446 c 0,-5.38 -2.041,-7.279 -7.75,-7.279 h -9.018 c -5.854,0 -7.66,1.811 -7.66,7.804 v 2.735 c 0,5.996 1.807,7.808 7.66,7.808 h 11.391 v 8.261 h -14.391 l 0.002,-4.979 h -5.875 v 2.5 c -0.002,5.936 1.932,7.836 7.779,7.836 h 10.508 c 5.92,0 7.732,-1.834 7.732,-7.836 v -3.473 c 0.002,-5.916 -1.858,-7.816 -7.731,-7.816 z"
         id="path73245"
         inkscape:connector-curvature="0"
         style="clip-rule:evenodd;fill:#000000;fill-rule:evenodd;fill-opacity:1" /><path
         d="M 92.378,144.14 H 74.456 v 31.965 h 6.207 v -12.028 h 11.715 c 4.879,0 7.057,-2.003 7.057,-6.521 v -6.918 c 0,-4.493 -2.178,-6.498 -7.057,-6.498 z m 0.824,7.758 v 4.313 c 0,2.355 -0.84,2.669 -2.855,2.669 h -9.684 v -9.684 h 9.684 c 2.23,0.001 2.855,0.572 2.855,2.702 z"
         id="path73247"
         inkscape:connector-curvature="0"
         style="clip-rule:evenodd;fill:#000000;fill-rule:evenodd;fill-opacity:1" /><path
         d="m 122.64,144.101 h -12.473 c -5.924,0 -7.789,1.934 -7.789,7.833 v 16.335 c 0,5.891 1.865,7.836 7.789,7.836 h 12.473 c 5.886,0 7.683,-1.875 7.683,-7.836 v -16.335 c 0,-5.983 -1.797,-7.833 -7.683,-7.833 z m -14.043,5.252 h 15.611 v 21.36 h -15.611 z"
         id="path73249"
         inkscape:connector-curvature="0"
         style="clip-rule:evenodd;fill:#000000;fill-rule:evenodd;fill-opacity:1" /><path
         d="m 149.03,164.077 h 3.117 c 4.912,0 7.055,-2.003 7.055,-6.521 v -6.918 c 0,-4.494 -2.143,-6.499 -7.055,-6.499 H 134.26 v 31.965 h 6.166 v -12.028 h 0.85 l 12.605,12.028 h 9.299 z m 1.074,-5.094 h -9.678 v -9.786 h 9.678 c 1.982,0 2.814,0.363 2.814,2.635 v 4.491 c 0,2.287 -0.709,2.66 -2.814,2.66 z"
         id="path73251"
         inkscape:connector-curvature="0"
         style="clip-rule:evenodd;fill:#000000;fill-rule:evenodd;fill-opacity:1" /></g><path
       d="M 214.965,136.847 H 195.42 L 185.123,120.56 h -30.611 l 10.291,-16.296 h 10.025 l -11.666,-18.499 -32.174,51.078 -19.58,0.003 v 0.01 H 46.22 l 20.6,-32.569 -15.131,0.005 10.293,-16.288 h 63.076 l -10.311,16.282 H 86.462 l -10.424,16.301 h 45.512 l 41.605,-65.72 z M 149.467,55.449 h -66.95 l -10.24,16.275 66.927,-0.038 z"
       id="path73255"
       inkscape:connector-curvature="0"
       style="fill:#000000;fill-opacity:1" /></g></svg>